<?xml version="1.0" encoding="UTF-8" standalone="no"?>
<!DOCTYPE svg PUBLIC "-//W3C//DTD SVG 1.1//EN"
 "http://www.w3.org/Graphics/SVG/1.1/DTD/svg11.dtd">
<!-- Generated by graphviz version 2.43.0 (0)
 -->
<!-- Title: source tree Pages: 1 -->
<svg width="2163pt" height="1087pt"
 viewBox="0.00 0.00 2163.00 1086.65" xmlns="http://www.w3.org/2000/svg" xmlns:xlink="http://www.w3.org/1999/xlink">
<g id="graph0" class="graph" transform="scale(1 1) rotate(0) translate(4 1082.65)">
<title>source tree</title>
<polygon fill="white" stroke="transparent" points="-4,4 -4,-1082.65 2159,-1082.65 2159,4 -4,4"/>
<g id="clust1" class="cluster">
<title>cluster_box_zoom_out</title>
<polygon fill="none" stroke="black" points="921,-583.84 921,-822.36 1530,-822.36 1530,-583.84 921,-583.84"/>
<text text-anchor="middle" x="1225.5" y="-805.56" font-family="Helvetica,sans-Serif" font-size="16.00">zoom out</text>
</g>
<g id="clust2" class="cluster">
<title>cluster_box_zoom_in</title>
<polygon fill="none" stroke="black" points="1538,-472.06 1538,-703.1 2147,-703.1 2147,-472.06 1538,-472.06"/>
<text text-anchor="middle" x="1842.5" y="-686.3" font-family="Helvetica,sans-Serif" font-size="16.00">zoom in</text>
</g>
<g id="clust3" class="cluster">
<title>cluster_box_teach_back</title>
<polygon fill="none" stroke="black" points="707,-121.75 707,-360.27 1034,-360.27 1034,-121.75 707,-121.75"/>
<text text-anchor="middle" x="870.5" y="-343.47" font-family="Helvetica,sans-Serif" font-size="16.00">teach back</text>
</g>
<g id="clust4" class="cluster">
<title>cluster_box_word_prob</title>
<polygon fill="none" stroke="black" points="1042,-121.75 1042,-360.27 1651,-360.27 1651,-121.75 1042,-121.75"/>
<text text-anchor="middle" x="1346.5" y="-343.47" font-family="Helvetica,sans-Serif" font-size="16.00">word problem</text>
</g>
<g id="clust5" class="cluster">
<title>cluster_box_reflect</title>
<polygon fill="none" stroke="black" points="8,-9.97 8,-241.01 699,-241.01 699,-9.97 8,-9.97"/>
<text text-anchor="middle" x="353.5" y="-224.21" font-family="Helvetica,sans-Serif" font-size="16.00">reflect</text>
</g>
<!-- root -->
<g id="node1" class="node">
<title>root</title>
<ellipse fill="none" stroke="black" cx="1163" cy="-1055.97" rx="29.8" ry="18"/>
<text text-anchor="middle" x="1163" y="-1052.27" font-family="Times,serif" font-size="14.00">root</text>
</g>
<!-- 6 -->
<g id="node2" class="node">
<title>6</title>
<ellipse fill="none" stroke="black" cx="1097" cy="-966.97" rx="0.5" ry="0.5"/>
<text text-anchor="middle" x="1097" y="-963.27" font-family="Times,serif" font-size="14.00" fill="#fffffe">6</text>
</g>
<!-- root&#45;&gt;6 -->
<g id="edge1" class="edge">
<title>root&#45;&gt;6</title>
<path fill="none" stroke="black" d="M1151.2,-1039.41C1137.12,-1020.85 1114.11,-990.52 1103.16,-976.09"/>
<polygon fill="black" stroke="black" points="1105.93,-973.95 1097.1,-968.1 1100.36,-978.18 1105.93,-973.95"/>
</g>
<!-- before -->
<g id="node6" class="node">
<title>before</title>
<ellipse fill="none" stroke="black" cx="1163" cy="-966.97" rx="40.09" ry="18"/>
<text text-anchor="middle" x="1163" y="-963.27" font-family="Times,serif" font-size="14.00">before</text>
</g>
<!-- root&#45;&gt;before -->
<g id="edge5" class="edge">
<title>root&#45;&gt;before</title>
<path fill="none" stroke="black" d="M1163,-1037.78C1163,-1025.62 1163,-1009.08 1163,-995.15"/>
<polygon fill="black" stroke="black" points="1166.5,-995.12 1163,-985.12 1159.5,-995.12 1166.5,-995.12"/>
</g>
<!-- anytime -->
<g id="node7" class="node">
<title>anytime</title>
<ellipse fill="none" stroke="black" cx="1325" cy="-966.97" rx="48.19" ry="18"/>
<text text-anchor="middle" x="1325" y="-963.27" font-family="Times,serif" font-size="14.00">anytime</text>
</g>
<!-- root&#45;&gt;anytime -->
<g id="edge6" class="edge">
<title>root&#45;&gt;anytime</title>
<path fill="none" stroke="black" d="M1184.51,-1043.41C1211.3,-1029.02 1257.44,-1004.25 1289.51,-987.03"/>
<polygon fill="black" stroke="black" points="1291.4,-989.98 1298.56,-982.17 1288.09,-983.81 1291.4,-989.98"/>
</g>
<!-- 7 -->
<g id="node3" class="node">
<title>7</title>
<ellipse fill="none" stroke="black" cx="979" cy="-865.97" rx="0.5" ry="0.5"/>
<text text-anchor="middle" x="979" y="-862.27" font-family="Times,serif" font-size="14.00" fill="#fffffe">7</text>
</g>
<!-- 6&#45;&gt;7 -->
<g id="edge2" class="edge">
<title>6&#45;&gt;7</title>
<path fill="none" stroke="black" d="M1096.91,-965.89C1093.92,-963.38 1013.09,-895.57 987.02,-873.7"/>
<polygon fill="black" stroke="black" points="988.99,-870.78 979.08,-867.03 984.49,-876.14 988.99,-870.78"/>
</g>
<!-- 8 -->
<g id="node4" class="node">
<title>8</title>
<ellipse fill="none" stroke="black" cx="895" cy="-746.97" rx="0.5" ry="0.5"/>
<text text-anchor="middle" x="895" y="-743.27" font-family="Times,serif" font-size="14.00" fill="#fffffe">8</text>
</g>
<!-- 7&#45;&gt;8 -->
<g id="edge3" class="edge">
<title>7&#45;&gt;8</title>
<path fill="none" stroke="black" d="M978.88,-864.89C976.45,-863.34 937.17,-838.01 917,-807.84 906.39,-791.96 900.09,-770.31 897.11,-757.86"/>
<polygon fill="black" stroke="black" points="900.53,-757.12 895.02,-748.07 893.68,-758.58 900.53,-757.12"/>
</g>
<!-- after -->
<g id="node5" class="node">
<title>after</title>
<ellipse fill="none" stroke="black" cx="880" cy="-626.97" rx="33.29" ry="18"/>
<text text-anchor="middle" x="880" y="-623.27" font-family="Times,serif" font-size="14.00">after</text>
</g>
<!-- 8&#45;&gt;after -->
<g id="edge4" class="edge">
<title>8&#45;&gt;after</title>
<path fill="none" stroke="black" d="M894.99,-745.88C894.68,-743.45 887.85,-689.76 883.52,-655.67"/>
<polygon fill="black" stroke="black" points="886.95,-654.86 882.21,-645.38 880,-655.75 886.95,-654.86"/>
</g>
<!-- d -->
<g id="node25" class="node">
<title>d</title>
<ellipse fill="none" stroke="black" cx="506" cy="-515.97" rx="0.5" ry="0.5"/>
<text text-anchor="middle" x="506" y="-512.27" font-family="Times,serif" font-size="14.00" fill="#fffffe">d</text>
</g>
<!-- after&#45;&gt;d -->
<g id="edge24" class="edge">
<title>after&#45;&gt;d</title>
<path fill="none" stroke="black" d="M851.58,-617.68C774.46,-595.21 563.78,-533.81 515.81,-519.82"/>
<polygon fill="black" stroke="black" points="516.63,-516.42 506.05,-516.98 514.67,-523.14 516.63,-516.42"/>
</g>
<!-- proofs -->
<g id="node28" class="node">
<title>proofs</title>
<ellipse fill="none" stroke="black" cx="695" cy="-515.97" rx="40.09" ry="18"/>
<text text-anchor="middle" x="695" y="-512.27" font-family="Times,serif" font-size="14.00">proofs</text>
</g>
<!-- after&#45;&gt;proofs -->
<g id="edge27" class="edge">
<title>after&#45;&gt;proofs</title>
<path fill="none" stroke="black" d="M858.42,-613.25C826.17,-594.25 765.18,-558.32 727.52,-536.13"/>
<polygon fill="black" stroke="black" points="728.87,-532.86 718.48,-530.8 725.32,-538.89 728.87,-532.86"/>
</g>
<!-- 4 -->
<g id="node29" class="node">
<title>4</title>
<ellipse fill="none" stroke="black" cx="880" cy="-515.97" rx="0.5" ry="0.5"/>
<text text-anchor="middle" x="880" y="-512.27" font-family="Times,serif" font-size="14.00" fill="#fffffe">4</text>
</g>
<!-- after&#45;&gt;4 -->
<g id="edge28" class="edge">
<title>after&#45;&gt;4</title>
<path fill="none" stroke="black" d="M880,-608.93C880,-585.95 880,-545.73 880,-527.04"/>
<polygon fill="black" stroke="black" points="883.5,-527.01 880,-517.01 876.5,-527.01 883.5,-527.01"/>
</g>
<!-- 5 -->
<g id="node31" class="node">
<title>5</title>
<ellipse fill="none" stroke="black" cx="975" cy="-515.97" rx="0.5" ry="0.5"/>
<text text-anchor="middle" x="975" y="-512.27" font-family="Times,serif" font-size="14.00" fill="#fffffe">5</text>
</g>
<!-- after&#45;&gt;5 -->
<g id="edge30" class="edge">
<title>after&#45;&gt;5</title>
<path fill="none" stroke="black" d="M893.61,-610.35C914.32,-586.59 952.95,-542.26 968.38,-524.56"/>
<polygon fill="black" stroke="black" points="971.03,-526.85 974.96,-517.01 965.75,-522.25 971.03,-526.85"/>
</g>
<!-- EOD -->
<g id="node33" class="node">
<title>EOD</title>
<ellipse fill="none" stroke="black" cx="1124" cy="-515.97" rx="32.49" ry="18"/>
<text text-anchor="middle" x="1124" y="-512.27" font-family="Times,serif" font-size="14.00">EOD</text>
</g>
<!-- after&#45;&gt;EOD -->
<g id="edge32" class="edge">
<title>after&#45;&gt;EOD</title>
<path fill="none" stroke="black" d="M894.38,-610.33C900.82,-604.01 908.81,-597.06 917,-592.1 971.03,-559.36 1041.56,-537.58 1084.78,-526.25"/>
<polygon fill="black" stroke="black" points="1085.8,-529.6 1094.62,-523.73 1084.06,-522.82 1085.8,-529.6"/>
</g>
<!-- zoom_out -->
<g id="node9" class="node">
<title>zoom_out</title>
<ellipse fill="none" stroke="black" cx="1135" cy="-865.97" rx="54.69" ry="18"/>
<text text-anchor="middle" x="1135" y="-862.27" font-family="Times,serif" font-size="14.00">zoom_out</text>
</g>
<!-- before&#45;&gt;zoom_out -->
<g id="edge8" class="edge">
<title>before&#45;&gt;zoom_out</title>
<path fill="none" stroke="black" d="M1158.12,-948.72C1153.83,-933.53 1147.5,-911.16 1142.55,-893.66"/>
<polygon fill="black" stroke="black" points="1145.91,-892.68 1139.82,-884.01 1139.18,-894.59 1145.91,-892.68"/>
</g>
<!-- . -->
<g id="node10" class="node">
<title>.</title>
<ellipse fill="none" stroke="black" cx="1208" cy="-865.97" rx="0.5" ry="0.5"/>
<text text-anchor="middle" x="1208" y="-862.27" font-family="Times,serif" font-size="14.00" fill="#fffffe">.</text>
</g>
<!-- before&#45;&gt;. -->
<g id="edge9" class="edge">
<title>before&#45;&gt;.</title>
<path fill="none" stroke="black" d="M1171.89,-949.39C1179.57,-934.74 1190.7,-912.68 1199,-892.84 1201.13,-887.74 1203.18,-881.93 1204.79,-877.12"/>
<polygon fill="black" stroke="black" points="1208.27,-877.72 1207.95,-867.13 1201.6,-875.61 1208.27,-877.72"/>
</g>
<!-- Talk through anything \nwe know so far. -->
<g id="node8" class="node">
<title>Talk through anything \nwe know so far.</title>
<ellipse fill="none" stroke="black" cx="1353" cy="-865.97" rx="126.64" ry="26.74"/>
<text text-anchor="middle" x="1353" y="-869.77" font-family="Times,serif" font-size="14.00">Talk through anything </text>
<text text-anchor="middle" x="1353" y="-854.77" font-family="Times,serif" font-size="14.00">we know so far.</text>
</g>
<!-- anytime&#45;&gt;Talk through anything \nwe know so far. -->
<g id="edge7" class="edge">
<title>anytime&#45;&gt;Talk through anything \nwe know so far.</title>
<path fill="none" stroke="black" d="M1329.88,-948.72C1333.45,-936.09 1338.43,-918.49 1342.85,-902.85"/>
<polygon fill="black" stroke="black" points="1346.3,-903.51 1345.65,-892.94 1339.57,-901.61 1346.3,-903.51"/>
</g>
<!-- Where can we \nfind help? -->
<g id="node12" class="node">
<title>Where can we \nfind help?</title>
<ellipse fill="none" stroke="black" cx="1436" cy="-746.97" rx="86.03" ry="26.74"/>
<text text-anchor="middle" x="1436" y="-750.77" font-family="Times,serif" font-size="14.00">Where can we </text>
<text text-anchor="middle" x="1436" y="-735.77" font-family="Times,serif" font-size="14.00">find help?</text>
</g>
<!-- zoom_out&#45;&gt;Where can we \nfind help? -->
<g id="edge11" class="edge">
<title>zoom_out&#45;&gt;Where can we \nfind help?</title>
<path fill="none" stroke="black" d="M1166.2,-851.14C1176.51,-846.9 1188.12,-842.46 1199,-839.1 1260.73,-819.97 1281.22,-832.37 1341,-807.84 1359.87,-800.09 1379.18,-788.68 1395.43,-777.88"/>
<polygon fill="black" stroke="black" points="1397.81,-780.5 1404.11,-771.98 1393.87,-774.71 1397.81,-780.5"/>
</g>
<!-- Can we re&#45;word? -->
<g id="node13" class="node">
<title>Can we re&#45;word?</title>
<ellipse fill="none" stroke="black" cx="1243" cy="-746.97" rx="89.08" ry="18"/>
<text text-anchor="middle" x="1243" y="-743.27" font-family="Times,serif" font-size="14.00">Can we re&#45;word?</text>
</g>
<!-- zoom_out&#45;&gt;Can we re&#45;word? -->
<g id="edge12" class="edge">
<title>zoom_out&#45;&gt;Can we re&#45;word?</title>
<path fill="none" stroke="black" d="M1150.24,-848.45C1168.55,-828.62 1199.42,-795.17 1220.48,-772.36"/>
<polygon fill="black" stroke="black" points="1223.27,-774.5 1227.48,-764.78 1218.13,-769.75 1223.27,-774.5"/>
</g>
<!-- a -->
<g id="node14" class="node">
<title>a</title>
<ellipse fill="none" stroke="black" cx="1135" cy="-746.97" rx="0.5" ry="0.5"/>
<text text-anchor="middle" x="1135" y="-743.27" font-family="Times,serif" font-size="14.00" fill="#fffffe">a</text>
</g>
<!-- zoom_out&#45;&gt;a -->
<g id="edge13" class="edge">
<title>zoom_out&#45;&gt;a</title>
<path fill="none" stroke="black" d="M1135,-847.95C1135,-823.25 1135,-778.2 1135,-758.11"/>
<polygon fill="black" stroke="black" points="1138.5,-758.01 1135,-748.01 1131.5,-758.01 1138.5,-758.01"/>
</g>
<!-- b -->
<g id="node16" class="node">
<title>b</title>
<ellipse fill="none" stroke="black" cx="1116" cy="-746.97" rx="0.5" ry="0.5"/>
<text text-anchor="middle" x="1116" y="-743.27" font-family="Times,serif" font-size="14.00" fill="#fffffe">b</text>
</g>
<!-- zoom_out&#45;&gt;b -->
<g id="edge15" class="edge">
<title>zoom_out&#45;&gt;b</title>
<path fill="none" stroke="black" d="M1132.24,-847.95C1128.23,-823.25 1120.91,-778.2 1117.65,-758.11"/>
<polygon fill="black" stroke="black" points="1121.07,-757.32 1116.01,-748.01 1114.16,-758.45 1121.07,-757.32"/>
</g>
<!-- Can we break \nit into steps? -->
<g id="node18" class="node">
<title>Can we break \nit into steps?</title>
<ellipse fill="none" stroke="black" cx="1013" cy="-746.97" rx="84.29" ry="26.74"/>
<text text-anchor="middle" x="1013" y="-750.77" font-family="Times,serif" font-size="14.00">Can we break </text>
<text text-anchor="middle" x="1013" y="-735.77" font-family="Times,serif" font-size="14.00">it into steps?</text>
</g>
<!-- zoom_out&#45;&gt;Can we break \nit into steps? -->
<g id="edge17" class="edge">
<title>zoom_out&#45;&gt;Can we break \nit into steps?</title>
<path fill="none" stroke="black" d="M1118.04,-848.7C1099.49,-830.91 1069.3,-801.96 1046.04,-779.65"/>
<polygon fill="black" stroke="black" points="1048.39,-777.06 1038.75,-772.66 1043.55,-782.11 1048.39,-777.06"/>
</g>
<!-- zoom_in -->
<g id="node11" class="node">
<title>zoom_in</title>
<ellipse fill="none" stroke="black" cx="1701" cy="-746.97" rx="48.19" ry="18"/>
<text text-anchor="middle" x="1701" y="-743.27" font-family="Times,serif" font-size="14.00">zoom_in</text>
</g>
<!-- .&#45;&gt;zoom_in -->
<g id="edge10" class="edge">
<title>.&#45;&gt;zoom_in</title>
<path fill="none" stroke="black" d="M1208,-864.91C1207.97,-863.83 1207.74,-846.39 1217,-839.1 1272.61,-795.3 1464.94,-823.37 1534,-807.84 1578.99,-797.72 1628.48,-778.95 1661.81,-765.12"/>
<polygon fill="black" stroke="black" points="1663.33,-768.28 1671.19,-761.18 1660.62,-761.83 1663.33,-768.28"/>
</g>
<!-- What&#39;s the relationship \nbetween __ and __? -->
<g id="node19" class="node">
<title>What&#39;s the relationship \nbetween __ and __?</title>
<ellipse fill="none" stroke="black" cx="2006" cy="-626.97" rx="132.87" ry="26.74"/>
<text text-anchor="middle" x="2006" y="-630.77" font-family="Times,serif" font-size="14.00">What&#39;s the relationship </text>
<text text-anchor="middle" x="2006" y="-615.77" font-family="Times,serif" font-size="14.00">between __ and __?</text>
</g>
<!-- zoom_in&#45;&gt;What&#39;s the relationship \nbetween __ and __? -->
<g id="edge18" class="edge">
<title>zoom_in&#45;&gt;What&#39;s the relationship \nbetween __ and __?</title>
<path fill="none" stroke="black" d="M1735.78,-734.32C1769.13,-723 1820.8,-705.03 1865,-687.84 1890.71,-677.83 1918.73,-666.11 1942.98,-655.69"/>
<polygon fill="black" stroke="black" points="1944.62,-658.8 1952.42,-651.63 1941.85,-652.37 1944.62,-658.8"/>
</g>
<!-- 2 -->
<g id="node20" class="node">
<title>2</title>
<ellipse fill="none" stroke="black" cx="1855" cy="-626.97" rx="0.5" ry="0.5"/>
<text text-anchor="middle" x="1855" y="-623.27" font-family="Times,serif" font-size="14.00" fill="#fffffe">2</text>
</g>
<!-- zoom_in&#45;&gt;2 -->
<g id="edge19" class="edge">
<title>zoom_in&#45;&gt;2</title>
<path fill="none" stroke="black" d="M1745.72,-739.98C1778.62,-733.13 1821.68,-718.57 1846,-687.84 1857.25,-673.62 1857.43,-651.39 1856.34,-638.39"/>
<polygon fill="black" stroke="black" points="1859.76,-637.55 1855.02,-628.08 1852.82,-638.44 1859.76,-637.55"/>
</g>
<!-- Can we draw \na diagram/picture/table? -->
<g id="node22" class="node">
<title>Can we draw \na diagram/picture/table?</title>
<ellipse fill="none" stroke="black" cx="1701" cy="-626.97" rx="135.53" ry="26.74"/>
<text text-anchor="middle" x="1701" y="-630.77" font-family="Times,serif" font-size="14.00">Can we draw </text>
<text text-anchor="middle" x="1701" y="-615.77" font-family="Times,serif" font-size="14.00">a diagram/picture/table?</text>
</g>
<!-- zoom_in&#45;&gt;Can we draw \na diagram/picture/table? -->
<g id="edge21" class="edge">
<title>zoom_in&#45;&gt;Can we draw \na diagram/picture/table?</title>
<path fill="none" stroke="black" d="M1701,-728.81C1701,-711.89 1701,-685.51 1701,-663.98"/>
<polygon fill="black" stroke="black" points="1704.5,-663.86 1701,-653.86 1697.5,-663.86 1704.5,-663.86"/>
</g>
<!-- 3 -->
<g id="node23" class="node">
<title>3</title>
<ellipse fill="none" stroke="black" cx="1547" cy="-626.97" rx="0.5" ry="0.5"/>
<text text-anchor="middle" x="1547" y="-623.27" font-family="Times,serif" font-size="14.00" fill="#fffffe">3</text>
</g>
<!-- zoom_in&#45;&gt;3 -->
<g id="edge22" class="edge">
<title>zoom_in&#45;&gt;3</title>
<path fill="none" stroke="black" d="M1656.28,-739.98C1623.38,-733.13 1580.32,-718.57 1556,-687.84 1544.75,-673.62 1544.57,-651.39 1545.66,-638.39"/>
<polygon fill="black" stroke="black" points="1549.18,-638.44 1546.98,-628.08 1542.24,-637.55 1549.18,-638.44"/>
</g>
<!-- Does it remind you \nof a similar problem? -->
<g id="node15" class="node">
<title>Does it remind you \nof a similar problem?</title>
<ellipse fill="none" stroke="black" cx="1339" cy="-626.97" rx="118.59" ry="26.74"/>
<text text-anchor="middle" x="1339" y="-630.77" font-family="Times,serif" font-size="14.00">Does it remind you </text>
<text text-anchor="middle" x="1339" y="-615.77" font-family="Times,serif" font-size="14.00">of a similar problem?</text>
</g>
<!-- a&#45;&gt;Does it remind you \nof a similar problem? -->
<g id="edge14" class="edge">
<title>a&#45;&gt;Does it remind you \nof a similar problem?</title>
<path fill="none" stroke="black" d="M1135,-745.92C1135.11,-744.92 1136.88,-728.85 1145,-720.1 1145.64,-719.4 1223.14,-682.7 1279.98,-655.84"/>
<polygon fill="black" stroke="black" points="1281.72,-658.89 1289.26,-651.45 1278.73,-652.56 1281.72,-658.89"/>
</g>
<!-- Can we predict \nor guess the answer? -->
<g id="node17" class="node">
<title>Can we predict \nor guess the answer?</title>
<ellipse fill="none" stroke="black" cx="1083" cy="-626.97" rx="119.5" ry="26.74"/>
<text text-anchor="middle" x="1083" y="-630.77" font-family="Times,serif" font-size="14.00">Can we predict </text>
<text text-anchor="middle" x="1083" y="-615.77" font-family="Times,serif" font-size="14.00">or guess the answer?</text>
</g>
<!-- b&#45;&gt;Can we predict \nor guess the answer? -->
<g id="edge16" class="edge">
<title>b&#45;&gt;Can we predict \nor guess the answer?</title>
<path fill="none" stroke="black" d="M1115.98,-745.88C1115.35,-743.64 1102.56,-697.91 1093.1,-664.07"/>
<polygon fill="black" stroke="black" points="1096.35,-662.7 1090.29,-654.02 1089.61,-664.59 1096.35,-662.7"/>
</g>
<!-- List variables. \nList the constants. -->
<g id="node21" class="node">
<title>List variables. \nList the constants.</title>
<ellipse fill="none" stroke="black" cx="1901" cy="-515.97" rx="105.22" ry="26.74"/>
<text text-anchor="middle" x="1901" y="-519.77" font-family="Times,serif" font-size="14.00">List variables. </text>
<text text-anchor="middle" x="1901" y="-504.77" font-family="Times,serif" font-size="14.00">List the constants.</text>
</g>
<!-- 2&#45;&gt;List variables. \nList the constants. -->
<g id="edge20" class="edge">
<title>2&#45;&gt;List variables. \nList the constants.</title>
<path fill="none" stroke="black" d="M1855.01,-625.91C1855.22,-624.76 1858.7,-606.22 1864,-592.1 1869.04,-578.64 1875.71,-564.38 1881.99,-551.94"/>
<polygon fill="black" stroke="black" points="1885.21,-553.32 1886.68,-542.83 1878.99,-550.11 1885.21,-553.32"/>
</g>
<!-- Should we set \ndefinitions or limits? -->
<g id="node24" class="node">
<title>Should we set \ndefinitions or limits?</title>
<ellipse fill="none" stroke="black" cx="1662" cy="-515.97" rx="115.93" ry="26.74"/>
<text text-anchor="middle" x="1662" y="-519.77" font-family="Times,serif" font-size="14.00">Should we set </text>
<text text-anchor="middle" x="1662" y="-504.77" font-family="Times,serif" font-size="14.00">definitions or limits?</text>
</g>
<!-- 3&#45;&gt;Should we set \ndefinitions or limits? -->
<g id="edge23" class="edge">
<title>3&#45;&gt;Should we set \ndefinitions or limits?</title>
<path fill="none" stroke="black" d="M1547,-625.9C1547.02,-624.66 1547.39,-604.49 1556,-592.1 1568.77,-573.71 1587.57,-558.28 1605.81,-546.29"/>
<polygon fill="black" stroke="black" points="1608.1,-548.98 1614.69,-540.68 1604.37,-543.06 1608.1,-548.98"/>
</g>
<!-- e -->
<g id="node26" class="node">
<title>e</title>
<ellipse fill="none" stroke="black" cx="376" cy="-403.97" rx="0.5" ry="0.5"/>
<text text-anchor="middle" x="376" y="-400.27" font-family="Times,serif" font-size="14.00" fill="#fffffe">e</text>
</g>
<!-- d&#45;&gt;e -->
<g id="edge25" class="edge">
<title>d&#45;&gt;e</title>
<path fill="none" stroke="black" d="M505.96,-514.93C504.17,-513.56 446.57,-469.4 403,-430.84 396.25,-424.87 388.89,-417.77 383.56,-412.52"/>
<polygon fill="black" stroke="black" points="385.72,-409.73 376.17,-405.13 380.77,-414.68 385.72,-409.73"/>
</g>
<!-- reflect -->
<g id="node27" class="node">
<title>reflect</title>
<ellipse fill="none" stroke="black" cx="357" cy="-283.97" rx="40.09" ry="18"/>
<text text-anchor="middle" x="357" y="-280.27" font-family="Times,serif" font-size="14.00">reflect</text>
</g>
<!-- e&#45;&gt;reflect -->
<g id="edge26" class="edge">
<title>e&#45;&gt;reflect</title>
<path fill="none" stroke="black" d="M375.99,-402.88C375.59,-400.45 366.95,-346.76 361.46,-312.67"/>
<polygon fill="black" stroke="black" points="364.85,-311.7 359.8,-302.38 357.94,-312.81 364.85,-311.7"/>
</g>
<!-- What strategy \ndid you use? -->
<g id="node44" class="node">
<title>What strategy \ndid you use?</title>
<ellipse fill="none" stroke="black" cx="604" cy="-164.97" rx="86.95" ry="26.74"/>
<text text-anchor="middle" x="604" y="-168.77" font-family="Times,serif" font-size="14.00">What strategy </text>
<text text-anchor="middle" x="604" y="-153.77" font-family="Times,serif" font-size="14.00">did you use?</text>
</g>
<!-- reflect&#45;&gt;What strategy \ndid you use? -->
<g id="edge43" class="edge">
<title>reflect&#45;&gt;What strategy \ndid you use?</title>
<path fill="none" stroke="black" d="M388.99,-272.9C420.09,-262.64 468.31,-245.48 508,-225.84 525.82,-217.01 544.57,-205.8 560.71,-195.48"/>
<polygon fill="black" stroke="black" points="562.9,-198.23 569.39,-189.85 559.1,-192.35 562.9,-198.23"/>
</g>
<!-- Does this \nalways work? -->
<g id="node45" class="node">
<title>Does this \nalways work?</title>
<ellipse fill="none" stroke="black" cx="419" cy="-164.97" rx="79.81" ry="26.74"/>
<text text-anchor="middle" x="419" y="-168.77" font-family="Times,serif" font-size="14.00">Does this </text>
<text text-anchor="middle" x="419" y="-153.77" font-family="Times,serif" font-size="14.00">always work?</text>
</g>
<!-- reflect&#45;&gt;Does this \nalways work? -->
<g id="edge44" class="edge">
<title>reflect&#45;&gt;Does this \nalways work?</title>
<path fill="none" stroke="black" d="M365.88,-266.2C374.91,-249.17 389.15,-222.3 400.61,-200.66"/>
<polygon fill="black" stroke="black" points="403.74,-202.23 405.33,-191.75 397.56,-198.95 403.74,-202.23"/>
</g>
<!-- f -->
<g id="node46" class="node">
<title>f</title>
<ellipse fill="none" stroke="black" cx="321" cy="-164.97" rx="0.5" ry="0.5"/>
<text text-anchor="middle" x="321" y="-161.27" font-family="Times,serif" font-size="14.00" fill="#fffffe">f</text>
</g>
<!-- reflect&#45;&gt;f -->
<g id="edge45" class="edge">
<title>reflect&#45;&gt;f</title>
<path fill="none" stroke="black" d="M347.36,-265.99C341.48,-254.89 334.28,-239.9 330,-225.84 324.84,-208.89 322.58,-188.3 321.63,-176.22"/>
<polygon fill="black" stroke="black" points="325.11,-175.83 321,-166.06 318.12,-176.26 325.11,-175.83"/>
</g>
<!-- g -->
<g id="node48" class="node">
<title>g</title>
<ellipse fill="none" stroke="black" cx="302" cy="-164.97" rx="0.5" ry="0.5"/>
<text text-anchor="middle" x="302" y="-161.27" font-family="Times,serif" font-size="14.00" fill="#fffffe">g</text>
</g>
<!-- reflect&#45;&gt;g -->
<g id="edge47" class="edge">
<title>reflect&#45;&gt;g</title>
<path fill="none" stroke="black" d="M340.29,-267.05C330.14,-256.38 317.86,-241.46 311,-225.84 303.88,-209.61 302.23,-188.8 301.94,-176.47"/>
<polygon fill="black" stroke="black" points="305.44,-176.09 302,-166.07 298.44,-176.05 305.44,-176.09"/>
</g>
<!-- (tweak) What happens if..? -->
<g id="node50" class="node">
<title>(tweak) What happens if..?</title>
<ellipse fill="none" stroke="black" cx="150" cy="-164.97" rx="133.78" ry="18"/>
<text text-anchor="middle" x="150" y="-161.27" font-family="Times,serif" font-size="14.00">(tweak) What happens if..?</text>
</g>
<!-- reflect&#45;&gt;(tweak) What happens if..? -->
<g id="edge49" class="edge">
<title>reflect&#45;&gt;(tweak) What happens if..?</title>
<path fill="none" stroke="black" d="M332.85,-269.31C297.28,-249.21 230.46,-211.44 188.2,-187.56"/>
<polygon fill="black" stroke="black" points="189.74,-184.41 179.31,-182.53 186.3,-190.5 189.74,-184.41"/>
</g>
<!-- Convince me \nthis works. -->
<g id="node35" class="node">
<title>Convince me \nthis works.</title>
<ellipse fill="none" stroke="black" cx="492" cy="-403.97" rx="79.81" ry="26.74"/>
<text text-anchor="middle" x="492" y="-407.77" font-family="Times,serif" font-size="14.00">Convince me </text>
<text text-anchor="middle" x="492" y="-392.77" font-family="Times,serif" font-size="14.00">this works.</text>
</g>
<!-- proofs&#45;&gt;Convince me \nthis works. -->
<g id="edge34" class="edge">
<title>proofs&#45;&gt;Convince me \nthis works.</title>
<path fill="none" stroke="black" d="M670.11,-501.48C638.32,-484.25 582.55,-454.03 541.87,-431.99"/>
<polygon fill="black" stroke="black" points="543.37,-428.82 532.91,-427.13 540.04,-434.98 543.37,-428.82"/>
</g>
<!-- How can we \ncheck the answer? -->
<g id="node36" class="node">
<title>How can we \ncheck the answer?</title>
<ellipse fill="none" stroke="black" cx="695" cy="-403.97" rx="105.22" ry="26.74"/>
<text text-anchor="middle" x="695" y="-407.77" font-family="Times,serif" font-size="14.00">How can we </text>
<text text-anchor="middle" x="695" y="-392.77" font-family="Times,serif" font-size="14.00">check the answer?</text>
</g>
<!-- proofs&#45;&gt;How can we \ncheck the answer? -->
<g id="edge35" class="edge">
<title>proofs&#45;&gt;How can we \ncheck the answer?</title>
<path fill="none" stroke="black" d="M695,-497.78C695,-482.69 695,-460.23 695,-441.19"/>
<polygon fill="black" stroke="black" points="698.5,-441.03 695,-431.03 691.5,-441.03 698.5,-441.03"/>
</g>
<!-- teach_back -->
<g id="node30" class="node">
<title>teach_back</title>
<ellipse fill="none" stroke="black" cx="880" cy="-403.97" rx="61.99" ry="18"/>
<text text-anchor="middle" x="880" y="-400.27" font-family="Times,serif" font-size="14.00">teach_back</text>
</g>
<!-- 4&#45;&gt;teach_back -->
<g id="edge29" class="edge">
<title>4&#45;&gt;teach_back</title>
<path fill="none" stroke="black" d="M880,-514.89C880,-512.65 880,-464.02 880,-432.2"/>
<polygon fill="black" stroke="black" points="883.5,-432.15 880,-422.15 876.5,-432.15 883.5,-432.15"/>
</g>
<!-- If someone needed a hint, \nwhat do you say? -->
<g id="node37" class="node">
<title>If someone needed a hint, \nwhat do you say?</title>
<ellipse fill="none" stroke="black" cx="880" cy="-283.97" rx="145.83" ry="26.74"/>
<text text-anchor="middle" x="880" y="-287.77" font-family="Times,serif" font-size="14.00">If someone needed a hint, </text>
<text text-anchor="middle" x="880" y="-272.77" font-family="Times,serif" font-size="14.00">what do you say?</text>
</g>
<!-- teach_back&#45;&gt;If someone needed a hint, \nwhat do you say? -->
<g id="edge36" class="edge">
<title>teach_back&#45;&gt;If someone needed a hint, \nwhat do you say?</title>
<path fill="none" stroke="black" d="M880,-385.81C880,-368.89 880,-342.51 880,-320.98"/>
<polygon fill="black" stroke="black" points="883.5,-320.86 880,-310.86 876.5,-320.86 883.5,-320.86"/>
</g>
<!-- h -->
<g id="node38" class="node">
<title>h</title>
<ellipse fill="none" stroke="black" cx="716" cy="-283.97" rx="0.5" ry="0.5"/>
<text text-anchor="middle" x="716" y="-280.27" font-family="Times,serif" font-size="14.00" fill="#fffffe">h</text>
</g>
<!-- teach_back&#45;&gt;h -->
<g id="edge37" class="edge">
<title>teach_back&#45;&gt;h</title>
<path fill="none" stroke="black" d="M843.17,-389.41C797.65,-372.62 725.99,-346.05 725,-344.84 713.47,-330.59 713.47,-307.97 714.64,-295"/>
<polygon fill="black" stroke="black" points="718.11,-295.45 715.98,-285.08 711.18,-294.52 718.11,-295.45"/>
</g>
<!-- word_problem -->
<g id="node32" class="node">
<title>word_problem</title>
<ellipse fill="none" stroke="black" cx="1051" cy="-403.97" rx="77.19" ry="18"/>
<text text-anchor="middle" x="1051" y="-400.27" font-family="Times,serif" font-size="14.00">word_problem</text>
</g>
<!-- 5&#45;&gt;word_problem -->
<g id="edge31" class="edge">
<title>5&#45;&gt;word_problem</title>
<path fill="none" stroke="black" d="M975.06,-514.89C976.62,-512.61 1011.37,-462.32 1033.32,-430.56"/>
<polygon fill="black" stroke="black" points="1036.33,-432.36 1039.13,-422.15 1030.57,-428.38 1036.33,-432.36"/>
</g>
<!-- Which words were \nmost important? -->
<g id="node40" class="node">
<title>Which words were \nmost important?</title>
<ellipse fill="none" stroke="black" cx="1535" cy="-283.97" rx="108.38" ry="26.74"/>
<text text-anchor="middle" x="1535" y="-287.77" font-family="Times,serif" font-size="14.00">Which words were </text>
<text text-anchor="middle" x="1535" y="-272.77" font-family="Times,serif" font-size="14.00">most important?</text>
</g>
<!-- word_problem&#45;&gt;Which words were \nmost important? -->
<g id="edge39" class="edge">
<title>word_problem&#45;&gt;Which words were \nmost important?</title>
<path fill="none" stroke="black" d="M1093.11,-388.84C1107.24,-384.52 1123.18,-380.13 1138,-377.1 1260.72,-351.98 1298.1,-381.12 1418,-344.84 1441.97,-337.58 1466.89,-325.54 1487.55,-314.16"/>
<polygon fill="black" stroke="black" points="1489.42,-317.12 1496.42,-309.16 1485.99,-311.02 1489.42,-317.12"/>
</g>
<!-- Did you use concepts \nthat aren&#39;t just math concepts? -->
<g id="node41" class="node">
<title>Did you use concepts \nthat aren&#39;t just math concepts?</title>
<ellipse fill="none" stroke="black" cx="1239" cy="-283.97" rx="169.91" ry="26.74"/>
<text text-anchor="middle" x="1239" y="-287.77" font-family="Times,serif" font-size="14.00">Did you use concepts </text>
<text text-anchor="middle" x="1239" y="-272.77" font-family="Times,serif" font-size="14.00">that aren&#39;t just math concepts?</text>
</g>
<!-- word_problem&#45;&gt;Did you use concepts \nthat aren&#39;t just math concepts? -->
<g id="edge40" class="edge">
<title>word_problem&#45;&gt;Did you use concepts \nthat aren&#39;t just math concepts?</title>
<path fill="none" stroke="black" d="M1076.75,-386.81C1105.89,-368.52 1154.01,-338.31 1190.3,-315.53"/>
<polygon fill="black" stroke="black" points="1192.18,-318.49 1198.79,-310.21 1188.45,-312.56 1192.18,-318.49"/>
</g>
<!-- c -->
<g id="node42" class="node">
<title>c</title>
<ellipse fill="none" stroke="black" cx="1051" cy="-283.97" rx="0.5" ry="0.5"/>
<text text-anchor="middle" x="1051" y="-280.27" font-family="Times,serif" font-size="14.00" fill="#fffffe">c</text>
</g>
<!-- word_problem&#45;&gt;c -->
<g id="edge41" class="edge">
<title>word_problem&#45;&gt;c</title>
<path fill="none" stroke="black" d="M1051,-385.81C1051,-360.89 1051,-315.46 1051,-295.2"/>
<polygon fill="black" stroke="black" points="1054.5,-295.01 1051,-285.01 1047.5,-295.01 1054.5,-295.01"/>
</g>
<!-- What things \nare up next? -->
<g id="node34" class="node">
<title>What things \nare up next?</title>
<ellipse fill="none" stroke="black" cx="1223" cy="-403.97" rx="76.24" ry="26.74"/>
<text text-anchor="middle" x="1223" y="-407.77" font-family="Times,serif" font-size="14.00">What things </text>
<text text-anchor="middle" x="1223" y="-392.77" font-family="Times,serif" font-size="14.00">are up next?</text>
</g>
<!-- EOD&#45;&gt;What things \nare up next? -->
<g id="edge33" class="edge">
<title>EOD&#45;&gt;What things \nare up next?</title>
<path fill="none" stroke="black" d="M1138.18,-499.2C1152.6,-483.19 1175.34,-457.92 1193.65,-437.57"/>
<polygon fill="black" stroke="black" points="1196.34,-439.82 1200.43,-430.05 1191.14,-435.14 1196.34,-439.82"/>
</g>
<!-- I missed this class. \nExplain what I missed. -->
<g id="node39" class="node">
<title>I missed this class. \nExplain what I missed.</title>
<ellipse fill="none" stroke="black" cx="842" cy="-164.97" rx="126.64" ry="26.74"/>
<text text-anchor="middle" x="842" y="-168.77" font-family="Times,serif" font-size="14.00">I missed this class. </text>
<text text-anchor="middle" x="842" y="-153.77" font-family="Times,serif" font-size="14.00">Explain what I missed.</text>
</g>
<!-- h&#45;&gt;I missed this class. \nExplain what I missed. -->
<g id="edge38" class="edge">
<title>h&#45;&gt;I missed this class. \nExplain what I missed.</title>
<path fill="none" stroke="black" d="M716.01,-282.92C716.12,-281.97 718.13,-266.68 725,-257.1 742.42,-232.79 768.13,-211.78 791,-196.07"/>
<polygon fill="black" stroke="black" points="793.24,-198.79 799.61,-190.32 789.35,-192.97 793.24,-198.79"/>
</g>
<!-- Is the solution a fit \nfor this situation? -->
<g id="node43" class="node">
<title>Is the solution a fit \nfor this situation?</title>
<ellipse fill="none" stroke="black" cx="1160" cy="-164.97" rx="109.7" ry="26.74"/>
<text text-anchor="middle" x="1160" y="-168.77" font-family="Times,serif" font-size="14.00">Is the solution a fit </text>
<text text-anchor="middle" x="1160" y="-153.77" font-family="Times,serif" font-size="14.00">for this situation?</text>
</g>
<!-- c&#45;&gt;Is the solution a fit \nfor this situation? -->
<g id="edge42" class="edge">
<title>c&#45;&gt;Is the solution a fit \nfor this situation?</title>
<path fill="none" stroke="black" d="M1051.01,-282.92C1051.15,-281.99 1053.5,-266.94 1060,-257.1 1075.12,-234.18 1097.28,-213.19 1116.9,-197.15"/>
<polygon fill="black" stroke="black" points="1119.22,-199.78 1124.84,-190.8 1114.85,-194.31 1119.22,-199.78"/>
</g>
<!-- Could we solve this \nusing other methods? -->
<g id="node47" class="node">
<title>Could we solve this \nusing other methods?</title>
<ellipse fill="none" stroke="black" cx="488" cy="-52.97" rx="121.74" ry="26.74"/>
<text text-anchor="middle" x="488" y="-56.77" font-family="Times,serif" font-size="14.00">Could we solve this </text>
<text text-anchor="middle" x="488" y="-41.77" font-family="Times,serif" font-size="14.00">using other methods?</text>
</g>
<!-- f&#45;&gt;Could we solve this \nusing other methods? -->
<g id="edge46" class="edge">
<title>f&#45;&gt;Could we solve this \nusing other methods?</title>
<path fill="none" stroke="black" d="M321,-163.9C320.95,-162.61 320.39,-141.73 330,-130.1 349.26,-106.79 377.35,-90.11 404.52,-78.43"/>
<polygon fill="black" stroke="black" points="406.16,-81.54 414.08,-74.5 403.5,-75.06 406.16,-81.54"/>
</g>
<!-- What does this mean? \nIn a real&#45;life situation? -->
<g id="node49" class="node">
<title>What does this mean? \nIn a real&#45;life situation?</title>
<ellipse fill="none" stroke="black" cx="222" cy="-52.97" rx="126.64" ry="26.74"/>
<text text-anchor="middle" x="222" y="-56.77" font-family="Times,serif" font-size="14.00">What does this mean? </text>
<text text-anchor="middle" x="222" y="-41.77" font-family="Times,serif" font-size="14.00">In a real&#45;life situation?</text>
</g>
<!-- g&#45;&gt;What does this mean? \nIn a real&#45;life situation? -->
<g id="edge48" class="edge">
<title>g&#45;&gt;What does this mean? \nIn a real&#45;life situation?</title>
<path fill="none" stroke="black" d="M302,-163.91C301.9,-162.71 300.3,-143.3 293,-130.1 284.15,-114.1 271.21,-98.86 258.8,-86.27"/>
<polygon fill="black" stroke="black" points="261.17,-83.69 251.58,-79.18 256.26,-88.69 261.17,-83.69"/>
</g>
</g>
</svg>
